<?xml version="1.0" standalone="no"?>
<!DOCTYPE svg PUBLIC "-//W3C//DTD SVG 20010904//EN"
 "http://www.w3.org/TR/2001/REC-SVG-20010904/DTD/svg10.dtd">
<svg version="1.0" xmlns="http://www.w3.org/2000/svg"
 width="382.000000pt" height="382.000000pt" viewBox="0 0 382.000000 382.000000"
 preserveAspectRatio="xMidYMid meet">
<metadata>
Created by potrace 1.11, written by Peter Selinger 2001-2013
</metadata>
<g transform="translate(0.000000,382.000000) scale(0.100000,-0.100000)"
fill="#000000" stroke="none">
<path d="M2702 2535 c-11 -14 -33 -27 -50 -29 -16 -1 -34 -6 -39 -9 -6 -4 -22
2 -36 14 l-26 20 -41 -26 c-41 -26 -47 -39 -31 -64 7 -10 1 -26 -17 -50 -14
-20 -27 -37 -28 -39 -2 -4 -31 -10 -50 -11 -6 -1 -15 -21 -21 -46 -10 -42 -9
-46 18 -67 33 -28 48 -98 24 -118 -21 -17 -19 -34 8 -76 19 -30 26 -34 51 -29
39 7 106 -37 106 -71 0 -26 9 -34 57 -44 30 -7 37 -5 61 21 14 16 30 28 36 26
6 -2 21 0 34 4 16 6 30 4 45 -6 30 -21 43 -19 82 11 29 22 33 29 25 50 -8 20
-4 32 18 64 17 24 35 39 48 40 28 0 41 17 49 60 5 27 2 37 -18 54 -14 12 -29
40 -35 63 -8 36 -7 44 10 59 21 19 18 32 -15 80 -18 28 -24 31 -46 23 -20 -8
-32 -5 -65 20 -26 18 -41 37 -41 51 0 24 -15 34 -61 44 -26 6 -35 3 -52 -19z
m64 -206 c37 -22 56 -55 57 -101 2 -74 -43 -127 -115 -135 -87 -10 -149 51
-143 141 3 44 8 55 40 83 54 46 99 50 161 12z"/>
<path d="M2061 2351 c-8 -5 -16 -17 -17 -27 -4 -25 -44 -54 -76 -54 -38 0 -66
-42 -49 -73 15 -28 7 -78 -14 -93 -16 -12 -20 -61 -7 -80 4 -6 14 -10 23 -9
23 4 62 -51 57 -80 -6 -31 51 -66 75 -47 19 17 77 9 93 -12 19 -26 78 -18 82
11 4 29 57 67 82 60 14 -4 26 4 40 24 18 24 19 32 9 51 -17 31 -12 68 13 95
29 31 17 79 -22 88 -29 6 -57 53 -52 86 2 9 -9 24 -24 34 -22 14 -31 15 -46 6
-28 -17 -73 -13 -93 9 -19 21 -51 26 -74 11z m138 -168 c97 -89 -22 -231 -124
-149 -26 21 -30 30 -30 75 0 44 4 54 29 74 42 34 88 34 125 0z"/>
<path d="M348 2138 c-4 -11 -3 -216 1 -241 0 -5 11 -7 24 -5 20 3 22 9 24 72
1 38 4 70 5 72 2 1 30 -31 63 -72 44 -54 65 -74 80 -72 19 3 20 11 20 128 0
122 -1 125 -22 128 -13 2 -23 0 -24 -5 -1 -4 -2 -36 -4 -71 -1 -35 -4 -65 -6
-67 -3 -2 -31 30 -63 71 -55 70 -88 91 -98 62z"/>
<path d="M1194 2120 c-4 -17 -9 -28 -12 -25 -8 8 -32 -16 -32 -31 0 -8 10 -18
23 -23 21 -8 23 -14 20 -69 -3 -70 14 -105 41 -83 12 10 16 31 16 82 0 61 2
69 19 69 10 0 21 9 24 19 6 23 0 31 -24 31 -12 0 -19 9 -21 28 -2 19 -9 28
-26 30 -18 3 -23 -2 -28 -28z"/>
<path d="M1022 2084 c-48 -20 -67 -90 -41 -147 22 -48 98 -68 139 -37 33 25
21 54 -20 45 -31 -7 -73 2 -66 13 2 4 27 7 55 6 64 -1 79 17 58 68 -24 58 -68
76 -125 52z m65 -60 c2 -7 -8 -9 -27 -6 -16 2 -27 8 -24 14 8 12 46 6 51 -8z"/>
<path d="M1332 2080 c-68 -42 -63 -147 8 -182 41 -20 75 -12 105 24 72 86 -20
214 -113 158z m67 -49 c20 -13 22 -57 3 -73 -31 -26 -62 -10 -62 31 0 42 27
62 59 42z"/>
<path d="M599 2068 c-3 -67 1 -119 10 -135 23 -40 30 -46 69 -50 33 -4 45 0
71 24 31 29 36 51 32 151 -1 27 -5 32 -26 32 -26 0 -29 -9 -26 -89 1 -41 -22
-71 -50 -64 -21 6 -20 5 -24 79 -3 60 -9 74 -36 74 -13 0 -19 -7 -20 -22z"/>
<path d="M795 2078 c-3 -7 10 -51 29 -98 28 -70 38 -85 56 -85 18 0 28 15 55
83 36 87 36 115 2 110 -14 -2 -25 -17 -36 -45 -8 -24 -18 -43 -21 -43 -3 0
-13 19 -21 43 -16 43 -53 64 -64 35z"/>
<path d="M2975 2027 c-14 -5 -26 -16 -27 -25 0 -9 -2 -23 -2 -30 -1 -14 -83
-82 -98 -82 -5 0 -18 4 -28 10 -22 12 -36 0 -70 -55 l-22 -35 21 -26 c17 -21
20 -35 15 -63 -4 -20 -7 -42 -7 -49 0 -7 -13 -22 -29 -33 -30 -22 -33 -35 -18
-90 8 -29 16 -37 47 -45 20 -5 41 -18 47 -28 6 -11 18 -28 27 -39 13 -14 15
-27 9 -53 -7 -30 -5 -36 19 -53 57 -40 67 -42 95 -20 19 15 34 18 58 14 18 -3
41 -7 50 -9 9 -1 27 -14 38 -29 23 -30 37 -32 91 -17 31 9 38 16 43 45 9 47
82 100 119 86 29 -11 36 -7 70 43 l26 39 -20 29 c-30 42 -19 120 22 149 30 21
30 24 13 102 -3 15 -12 28 -20 28 -8 1 -23 2 -34 3 -11 0 -29 15 -39 32 -11
18 -24 35 -30 38 -10 6 -8 63 3 73 5 6 -36 41 -71 60 -18 10 -25 9 -47 -8 -37
-29 -119 -18 -146 21 -21 29 -52 34 -105 17z m201 -252 c79 -51 88 -168 19
-235 -94 -91 -247 -34 -259 97 -11 126 132 209 240 138z"/>
<path d="M454 1785 c-64 -32 -94 -84 -87 -152 8 -86 39 -114 171 -157 50 -17
71 -36 66 -63 -1 -7 -2 -19 -3 -27 -2 -19 -50 -37 -89 -31 -18 2 -46 14 -62
25 -37 26 -58 20 -87 -24 -20 -32 -20 -34 -3 -48 36 -31 129 -58 183 -54 119
10 174 63 182 175 5 82 -52 136 -181 170 -38 10 -52 24 -60 58 -9 45 84 66
140 32 17 -10 34 -19 38 -19 4 0 19 17 32 37 23 34 24 38 10 54 -22 25 -99 49
-154 49 -29 0 -64 -9 -96 -25z"/>
<path d="M800 1795 c-5 -6 -7 -15 -4 -18 8 -8 7 -383 -1 -397 -3 -5 -3 -10 2
-10 4 0 7 -25 6 -55 -2 -30 0 -55 5 -56 36 -4 85 -3 94 2 14 9 18 528 3 537
-18 11 -95 9 -105 -3z"/>
<path d="M1151 1788 c-186 -71 -227 -333 -73 -469 24 -20 63 -44 87 -52 63
-22 186 -16 253 13 l52 22 0 119 0 119 -27 1 c-58 2 -155 -1 -162 -6 -6 -3 -7
-37 -2 -77 1 -4 18 -8 39 -10 36 -3 37 -4 37 -43 0 -33 -4 -40 -25 -46 -72
-20 -141 -1 -180 48 -63 80 -40 237 41 278 57 30 104 25 210 -19 21 -9 72 54
63 77 -3 8 -29 25 -57 38 -72 32 -183 35 -256 7z"/>
<path d="M1545 1800 c-10 -17 -6 -533 4 -539 12 -8 89 -6 97 1 2 3 5 80 5 172
0 91 2 166 4 166 1 0 18 -28 35 -62 50 -96 112 -213 115 -216 8 -9 66 -8 78 1
8 7 45 71 82 142 37 72 70 133 73 137 4 4 6 -68 5 -159 -2 -92 1 -171 6 -177
12 -14 91 -13 99 1 5 9 8 442 3 524 -1 13 -12 16 -59 14 -33 -1 -63 -5 -68 -8
-5 -3 -45 -80 -89 -171 -44 -90 -83 -164 -87 -163 -4 1 -43 74 -88 162 -45 88
-85 164 -90 169 -11 11 -119 16 -125 6z"/>
<path d="M2406 1794 c-11 -10 -199 -485 -208 -523 -2 -11 10 -14 52 -15 57 -1
90 17 90 49 0 9 7 29 15 45 l16 30 100 0 c71 0 101 -4 103 -12 2 -7 7 -22 12
-33 4 -11 8 -26 10 -34 5 -28 31 -42 83 -45 28 -1 54 1 57 5 4 6 -119 338
-161 434 -7 17 -19 47 -26 68 -7 20 -18 38 -24 38 -56 6 -110 3 -119 -7z m91
-194 c9 -30 18 -57 18 -60 1 -3 7 -18 14 -34 6 -16 9 -31 7 -34 -8 -7 -125 -7
-132 1 -3 3 9 50 27 105 19 56 37 94 42 88 4 -6 15 -36 24 -66z"/>
</g>
</svg>
